<!--
  - Copyright (c) 2025.
  -->

<svg id="Layer_1" data-name="Layer 1" xmlns="http://www.w3.org/2000/svg" viewBox="0 0 261.37 261.27">
    <defs>
        <style>
            .avatar-cls-1 {
            fill: #C5C5C5; /* warmes mittleres Grau f端r Body */
            }

            .avatar-cls-2 {
            fill: #4A4A4A; /* dunkles Grau f端r Umrandung */
            }

            /* Dark Mode */
            @media (prefers-color-scheme: dark) {
                .avatar-cls-1 {
                    fill: #6B6B6B; /* dunkleres Grau f端r Body im Dark Mode */
                }

                .avatar-cls-2 {
                    fill: #D0D0D0; /* helleres Grau f端r Umrandung im Dark Mode */
                }
            }
        </style>
    </defs>
    <path class="avatar-cls-1" d="M162.99,144.19c-9.2,6.4-20.4,10.1-32.31,10.1s-23.1-3.7-32.3-10.01c-15.01,6.51-27.01,18.91-32.71,34.82-1.6,4.6-3,9.2-4.1,13.89,17.11,18.8,41.81,30.71,69.11,30.71s52.01-11.91,69.12-30.71c-1.1-4.69-2.5-9.29-4.1-13.89-5.7-16-17.8-28.32-32.71-34.92Z"/>
    <path class="avatar-cls-1" d="M130.68,135.28c21.03,0,38.2-17.07,38.2-38.2s-17.17-38.1-38.2-38.1-38.2,17.07-38.2,38.1,17.17,38.2,38.2,38.2Z"/>
    <path class="avatar-cls-2" d="M130.68,0C58.62,0,0,58.58,0,130.59s58.62,130.68,130.68,130.68,130.69-58.62,130.69-130.68S202.74,0,130.68,0ZM130.68,242.51c-61.71,0-111.92-50.2-111.92-111.92S68.97,18.76,130.68,18.76s111.92,50.16,111.92,111.83-50.21,111.92-111.92,111.92Z"/>
</svg>